<svg xmlns="http://www.w3.org/2000/svg" xmlns:xlink="http://www.w3.org/1999/xlink" version="1.1" width="33.24593210220337" height="20.46243143081665" viewBox="-0.03481578826904297 0.7873842716217041 33.24593210220337 20.46243143081665">
  <!-- Exported by Scratch - http://scratch.mit.edu/ -->
  <path id="ID0.666787595488131" fill="#999999" stroke="#555555" stroke-width="1.3559322357177734" d="M 21.8161 7.2119 L 32.4602 7.2119 L 32.4602 14.9068 L 21.8161 14.9068 L 21.8161 7.2119 Z "/>
  <path id="ID0.666787595488131" fill="#999999" stroke="#555555" stroke-width="1.3559322357177734" d="M 0.7161 7.1619 L 11.3602 7.1619 L 11.3602 14.8568 L 0.7161 14.8568 L 0.7161 7.1619 Z "/>
  <path id="ID0.535878473892808" fill="#F14E54" stroke="#555555" stroke-width="1.5018315315246582" d="M 14.9668 1.5383 C 17.5822 1.5383 19.9521 2.6008 21.6687 4.3167 C 23.3845 6.0333 24.4471 8.4032 24.4471 11.0186 C 24.4471 13.634 23.3845 16.0039 21.6687 17.7205 C 19.9521 19.4364 17.5822 20.4989 14.9668 20.4989 C 12.3513 20.4989 9.9814 19.4364 8.2648 17.7205 C 6.549 16.0039 5.4865 13.634 5.4865 11.0186 C 5.4865 8.4032 6.549 6.0333 8.2648 4.3167 C 9.9814 2.6008 12.3513 1.5383 14.9668 1.5383 Z "/>
</svg>