<svg xmlns="http://www.w3.org/2000/svg" xmlns:xlink="http://www.w3.org/1999/xlink" version="1.1" width="36.42223024368286" height="20.46243143081665" viewBox="0.8388842344284058 0.6873842477798462 36.42223024368286 20.46243143081665">
  <!-- Exported by Scratch - http://scratch.mit.edu/ -->
  <g id="ID0.1458420013077557">
    <path id="ID0.666787595488131" fill="#999999" stroke="#555555" stroke-width="1.3559322357177734" d="M 16.6746 2.1441 L 1.5898 2.2119 L 1.5898 9.9068 L 12.2339 9.9068 L 16.6746 2.1441 Z "/>
    <path id="ID0.666787595488131" fill="#999999" stroke="#555555" stroke-width="1.3559322357177734" d="M 16.6746 19.7059 L 1.5898 19.6381 L 1.5898 11.9432 L 12.2339 11.9432 L 16.6746 19.7059 Z "/>
  </g>
  <g id="ID0.1458420013077557">
    <path id="ID0.666787595488131" fill="#999999" stroke="#555555" stroke-width="1.3559322357177734" d="M 21.4254 2.1441 L 36.5102 2.2119 L 36.5102 9.9068 L 25.8661 9.9068 L 21.4254 2.1441 Z "/>
    <path id="ID0.666787595488131" fill="#999999" stroke="#555555" stroke-width="1.3559322357177734" d="M 21.4254 19.7059 L 36.5102 19.6381 L 36.5102 11.9432 L 25.8661 11.9432 L 21.4254 19.7059 Z "/>
  </g>
  <path id="ID0.535878473892808" fill="#F14E54" stroke="#555555" stroke-width="1.5018315315246582" d="M 18.9668 1.4383 C 21.5822 1.4383 23.9521 2.5008 25.6687 4.2167 C 27.3845 5.9333 28.4471 8.3032 28.4471 10.9186 C 28.4471 13.534 27.3845 15.9039 25.6687 17.6205 C 23.9521 19.3364 21.5822 20.3989 18.9668 20.3989 C 16.3513 20.3989 13.9814 19.3364 12.2648 17.6205 C 10.549 15.9039 9.4865 13.534 9.4865 10.9186 C 9.4865 8.3032 10.549 5.9333 12.2648 4.2167 C 13.9814 2.5008 16.3513 1.4383 18.9668 1.4383 Z "/>
</svg>