<svg xmlns="http://www.w3.org/2000/svg" xmlns:xlink="http://www.w3.org/1999/xlink" version="1.1" width="130.19569396972656" height="70.51689910888672" viewBox="-0.5 -0.5 130.19569396972656 70.51689910888672">
  <!-- Exported by Scratch - http://scratch.mit.edu/ -->
  <path id="ID0.43481499468907714" fill="none" stroke="#000000" stroke-width="2" stroke-linecap="round" d="M 112 1 L 112.3 1.3 "/>
  <path id="ID0.6274612965062261" fill="#97EF6B" stroke="#7F7F7F" stroke-width="1.9406942099273685" d="M 50.5 29.3669 L 94.5 29.3669 L 94.5 68.3669 L 50.5 68.3669 L 50.5 29.3669 Z "/>
  <path id="ID0.6274612965062261" fill="#6BEFEB" stroke="#7F7F7F" stroke-width="1.9406942099273685" d="M 1 29.5169 L 45 29.5169 L 45 68.5169 L 1 68.5169 L 1 29.5169 Z "/>
  <g id="ID0.2463485011830926">
    <path id="ID0.666787595488131" fill="#999999" stroke="#555555" stroke-width="1.3559322635974784" d="M 19.5862 43.0043 L 34.522 39.2936 L 37.8076 52.5187 L 23.0034 56.1967 L 19.5862 43.0043 Z "/>
    <path id="ID0.535878473892808" fill="#00B2E1" stroke="#555555" stroke-width="1.5018315003081555" d="M 16.8822 40.8497 C 19.4205 40.2191 21.9766 40.6789 24.0563 41.9302 C 26.1354 43.1824 27.738 45.2262 28.3686 47.7645 C 28.9992 50.3028 28.5394 52.859 27.2881 54.9386 C 26.0359 57.0177 23.9921 58.6203 21.4538 59.2509 C 18.9155 59.8815 16.3594 59.4217 14.2797 58.1704 C 12.2006 56.9182 10.598 54.8744 9.9674 52.3361 C 9.3368 49.7978 9.7966 47.2417 11.0479 45.162 C 12.3001 43.0829 14.3439 41.4803 16.8822 40.8497 Z "/>
  </g>
  <g id="ID0.2896729768253863">
    <path id="ID0.666787595488131" fill="#999999" stroke="#555555" stroke-width="1.3559322253358113" d="M 72.7881 57.6028 L 83.1551 55.1861 L 82.4309 52.0481 L 74.4073 53.9152 L 72.7881 57.6028 Z "/>
    <path id="ID0.666787595488131" fill="#999999" stroke="#555555" stroke-width="1.3559322253358113" d="M 69.0946 40.8138 L 79.5197 38.6619 L 80.1777 41.8145 L 72.1105 43.4829 L 69.0946 40.8138 Z "/>
    <path id="ID0.666787595488131" fill="#999999" stroke="#555555" stroke-width="1.3559322253358113" d="M 69.6699 43.6278 L 83.8622 40.6135 L 84.9777 46.1645 L 74.5817 48.4488 L 69.6699 43.6278 Z "/>
    <path id="ID0.666787595488131" fill="#999999" stroke="#555555" stroke-width="1.3559322253358113" d="M 72.0965 54.6683 L 86.2451 51.4554 L 84.9309 45.9481 L 74.5348 48.2324 L 72.0965 54.6683 Z "/>
    <path id="ID0.535878473892808" fill="#00B2E1" stroke="#555555" stroke-width="1.50183149234853" d="M 67.0896 40.5633 C 69.6441 40.002 72.1868 40.5312 74.2316 41.8387 C 76.2759 43.1471 77.8223 45.2337 78.3836 47.7882 C 78.9448 50.3427 78.4156 52.8854 77.1082 54.9302 C 75.7998 56.9745 73.7132 58.5209 71.1587 59.0822 C 68.6042 59.6435 66.0615 59.1143 64.0166 57.8068 C 61.9724 56.4984 60.426 54.4118 59.8647 51.8573 C 59.3034 49.3028 59.8326 46.7601 61.1401 44.7152 C 62.4485 42.671 64.5351 41.1246 67.0896 40.5633 Z "/>
  </g>
  <path id="ID0.6274612965062261" fill="#E5E5E5" stroke="#7F7F7F" stroke-width="1.649259660752286" d="M 104.4739 29.974 L 128.1957 29.974 L 128.1957 53.2213 L 104.4739 53.2213 L 104.4739 29.974 Z "/>
  <g id="ID0.8978617256507277">
    <path id="ID0.7221970055252314" fill="none" stroke="#FF0000" stroke-width="3" stroke-linecap="round" d="M 110.5 47.5 L 122.6 35.65 "/>
    <path id="ID0.857853907160461" fill="none" stroke="#FF0000" stroke-width="3" stroke-linecap="round" d="M 110.4 35.75 L 123 47.6 "/>
  </g>
</svg>