<svg xmlns="http://www.w3.org/2000/svg" xmlns:xlink="http://www.w3.org/1999/xlink" version="1.1" width="21.851831912994385" height="25.351831912994385" viewBox="0.09908425807952881 -0.6009157598018646 21.851831912994385 25.351831912994385">
  <!-- Exported by Scratch - http://scratch.mit.edu/ -->
  <path id="ID0.517707219813019" fill="#4F5A5D" stroke="none" stroke-linecap="round" d="M 0.85 6 L 11 0.15 L 21.2 5.85 L 21.2 17.85 L 11 24 L 0.85 17.85 L 0.85 6 Z " stroke-width="1"/>
  <path id="ID0.535878473892808" fill="#F14E54" stroke="#555555" stroke-width="1.5018315315246582" d="M 11.0168 2.5383 C 13.6322 2.5383 16.0021 3.6008 17.7187 5.3167 C 19.4345 7.0333 20.4971 9.4032 20.4971 12.0186 C 20.4971 14.634 19.4345 17.0039 17.7187 18.7205 C 16.0021 20.4364 13.6322 21.4989 11.0168 21.4989 C 8.4013 21.4989 6.0314 20.4364 4.3148 18.7205 C 2.599 17.0039 1.5365 14.634 1.5365 12.0186 C 1.5365 9.4032 2.599 7.0333 4.3148 5.3167 C 6.0314 3.6008 8.4013 2.5383 11.0168 2.5383 Z "/>
</svg>