<svg xmlns="http://www.w3.org/2000/svg" xmlns:xlink="http://www.w3.org/1999/xlink" version="1.1" width="33.80233430862427" height="23.3382306098938" viewBox="0.40878427028656006 0.3308842182159424 33.80233430862427 23.3382306098938">
  <!-- Exported by Scratch - http://scratch.mit.edu/ -->
  <path id="ID0.666787595488131" fill="#999999" stroke="#555555" stroke-width="1.3559322672341034" d="M 1.1597 15.9434 L 10.8077 11.4476 L 14.0579 18.4224 L 4.4098 22.9182 L 1.1597 15.9434 Z "/>
  <path id="ID0.666787595488131" fill="#999999" stroke="#555555" stroke-width="1.3559322357177734" d="M 22.8161 8.2119 L 33.4602 8.2119 L 33.4602 15.9068 L 22.8161 15.9068 L 22.8161 8.2119 Z "/>
  <path id="ID0.666787595488131" fill="#999999" stroke="#555555" stroke-width="1.3559322672341034" d="M 1.3597 8.0566 L 11.0077 12.5524 L 14.2579 5.5776 L 4.6098 1.0818 L 1.3597 8.0566 Z "/>
  <path id="ID0.535878473892808" fill="#F14E54" stroke="#555555" stroke-width="1.5018315315246582" d="M 15.9668 2.5383 C 18.5822 2.5383 20.9521 3.6008 22.6687 5.3167 C 24.3845 7.0333 25.4471 9.4032 25.4471 12.0186 C 25.4471 14.634 24.3845 17.0039 22.6687 18.7205 C 20.9521 20.4364 18.5822 21.4989 15.9668 21.4989 C 13.3513 21.4989 10.9814 20.4364 9.2648 18.7205 C 7.549 17.0039 6.4865 14.634 6.4865 12.0186 C 6.4865 9.4032 7.549 7.0333 9.2648 5.3167 C 10.9814 3.6008 13.3513 2.5383 15.9668 2.5383 Z "/>
</svg>