<svg xmlns="http://www.w3.org/2000/svg" xmlns:xlink="http://www.w3.org/1999/xlink" version="1.1" width="28.736631870269775" height="20.46243143081665" viewBox="0.6566842794418335 0.7873842716217041 28.736631870269775 20.46243143081665">
  <!-- Exported by Scratch - http://scratch.mit.edu/ -->
  <path id="ID0.666787595488131" fill="#999999" stroke="#555555" stroke-width="1.3559322357177734" d="M 11.9161 6.4822 L 1.4076 4.55 L 1.4076 17.6009 L 11.9839 15.6009 L 11.9161 6.4822 Z "/>
  <path id="ID0.666787595488131" fill="#999999" stroke="#555555" stroke-width="1.3559322357177734" d="M 18.1339 6.4322 L 28.6424 4.5 L 28.6424 17.5509 L 18.0661 15.5509 L 18.1339 6.4322 Z "/>
  <path id="ID0.535878473892808" fill="#F14E54" stroke="#555555" stroke-width="1.5018315315246582" d="M 14.9668 1.5383 C 17.5822 1.5383 19.9521 2.6008 21.6687 4.3167 C 23.3845 6.0333 24.4471 8.4032 24.4471 11.0186 C 24.4471 13.634 23.3845 16.0039 21.6687 17.7205 C 19.9521 19.4364 17.5822 20.4989 14.9668 20.4989 C 12.3513 20.4989 9.9814 19.4364 8.2648 17.7205 C 6.549 16.0039 5.4865 13.634 5.4865 11.0186 C 5.4865 8.4032 6.549 6.0333 8.2648 4.3167 C 9.9814 2.6008 12.3513 1.5383 14.9668 1.5383 Z "/>
</svg>