<svg xmlns="http://www.w3.org/2000/svg" xmlns:xlink="http://www.w3.org/1999/xlink" version="1.1" width="30.374632358551025" height="35.13363313674927" viewBox="0.8703842163085938 0.33318424224853516 30.374632358551025 35.13363313674927">
  <!-- Exported by Scratch - http://scratch.mit.edu/ -->
  <g id="ID0.8090482093393803">
    <g id="ID0.2200954114086926">
      <path id="ID0.666787595488131" fill="#999999" stroke="#555555" stroke-width="1.3559322357177734" d="M 24.1212 15.261 L 30.4941 15.3627 L 30.4941 20.7186 L 24.0195 20.617 L 24.1212 15.261 Z "/>
      <path id="ID0.666787595488131" fill="#999999" stroke="#555555" stroke-width="1.3559322357177734" d="M 20.6178 13.8856 L 24.6178 14.767 L 24.6178 21.1398 L 20.5161 22.1568 L 20.6178 13.8856 Z "/>
    </g>
    <g id="ID0.2200954114086926">
      <path id="ID0.666787595488131" fill="#999999" stroke="#555555" stroke-width="1.3559321904692154" d="M 4.7122 9.3299 L 1.6213 3.7558 L 6.2632 1.0841 L 9.4049 6.7463 L 4.7122 9.3299 Z "/>
      <path id="ID0.666787595488131" fill="#999999" stroke="#555555" stroke-width="1.3559321904692154" d="M 5.2677 13.0524 L 4.0362 9.146 L 9.5596 5.9669 L 12.487 9.0145 L 5.2677 13.0524 Z "/>
    </g>
    <g id="ID0.2200954114086926">
      <path id="ID0.666787595488131" fill="#999999" stroke="#555555" stroke-width="1.3559321904692154" d="M 4.9622 26.4701 L 1.8713 32.0442 L 6.5132 34.7159 L 9.6549 29.0537 L 4.9622 26.4701 Z "/>
      <path id="ID0.666787595488131" fill="#999999" stroke="#555555" stroke-width="1.3559321904692154" d="M 5.5177 22.7476 L 4.2862 26.654 L 9.8096 29.8331 L 12.737 26.7855 L 5.5177 22.7476 Z "/>
    </g>
    <path id="ID0.535878473892808" fill="#00B2E1" stroke="#555555" stroke-width="1.5018315315246582" d="M 12.9668 8.5383 C 15.5822 8.5383 17.9521 9.6008 19.6687 11.3167 C 21.3845 13.0333 22.4471 15.4032 22.4471 18.0186 C 22.4471 20.634 21.3845 23.0039 19.6687 24.7205 C 17.9521 26.4364 15.5822 27.4989 12.9668 27.4989 C 10.3513 27.4989 7.9814 26.4364 6.2648 24.7205 C 4.549 23.0039 3.4865 20.634 3.4865 18.0186 C 3.4865 15.4032 4.549 13.0333 6.2648 11.3167 C 7.9814 9.6008 10.3513 8.5383 12.9668 8.5383 Z "/>
  </g>
</svg>