<svg xmlns="http://www.w3.org/2000/svg" xmlns:xlink="http://www.w3.org/1999/xlink" version="1.1" width="130.19569396972656" height="70.51689910888672" viewBox="-0.5 -0.5 130.19569396972656 70.51689910888672">
  <!-- Exported by Scratch - http://scratch.mit.edu/ -->
  <path id="ID0.43481499468907714" fill="none" stroke="#000000" stroke-width="2" stroke-linecap="round" d="M 112 1 L 112.3 1.3 "/>
  <path id="ID0.6274612965062261" fill="#97EF6B" stroke="#7F7F7F" stroke-width="1.9406942099273685" d="M 50.5 29.3669 L 94.5 29.3669 L 94.5 68.3669 L 50.5 68.3669 L 50.5 29.3669 Z "/>
  <path id="ID0.6274612965062261" fill="#6BEFEB" stroke="#7F7F7F" stroke-width="1.9406942099273685" d="M 1 29.5169 L 45 29.5169 L 45 68.5169 L 1 68.5169 L 1 29.5169 Z "/>
  <g id="ID0.8773189117200673">
    <path id="ID0.666787595488131" fill="#999999" stroke="#555555" stroke-width="1.3559322755309584" d="M 23.6291 44.1374 L 36.988 40.0635 L 39.1968 47.4346 L 25.5912 51.5116 L 23.6291 44.1374 Z "/>
    <path id="ID0.535878473892808" fill="#00B2E1" stroke="#555555" stroke-width="1.50183148580604" d="M 13.6112 41.3934 C 16.1166 40.6427 18.6917 40.9802 20.8286 42.1311 C 22.965 43.2829 24.6631 45.2481 25.4138 47.7535 C 26.1646 50.2588 25.827 52.834 24.6762 54.9709 C 23.5243 57.1073 21.5592 58.8054 19.0538 59.5561 C 16.5484 60.3069 13.9733 59.9693 11.8364 58.8184 C 9.7 57.6666 8.0019 55.7015 7.2512 53.1961 C 6.5004 50.6907 6.838 48.1156 7.9888 45.9787 C 9.1407 43.8423 11.1058 42.1442 13.6112 41.3934 Z "/>
  </g>
  <g id="ID0.9985010046511889">
    <path id="ID0.666787595488131" fill="#999999" stroke="#555555" stroke-width="1.3559322506858607" d="M 73.2345 44.9038 L 86.636 40.9724 L 88.7662 48.3665 L 75.1179 52.2985 L 73.2345 44.9038 Z "/>
    <path id="ID0.666787595488131" fill="#999999" stroke="#555555" stroke-width="1.3559322506858607" d="M 69.5717 44.234 L 83.1548 40.3208 L 86.1296 50.6466 L 72.6116 54.541 L 69.5717 44.234 Z "/>
    <path id="ID0.535878473892808" fill="#00B2E1" stroke="#555555" stroke-width="1.5018315588201638" d="M 65.0971 41.4827 C 67.6104 40.7587 70.1818 41.1236 72.3063 42.2972 C 74.4303 43.4717 76.1074 45.4548 76.8314 47.968 C 77.5554 50.4813 77.1905 53.0527 76.0169 55.1772 C 74.8424 57.3012 72.8593 58.9783 70.3461 59.7023 C 67.8328 60.4263 65.2614 60.0614 63.1369 58.8878 C 61.0129 57.7133 59.3358 55.7302 58.6118 53.217 C 57.8878 50.7037 58.2527 48.1323 59.4263 46.0078 C 60.6008 43.8838 62.5839 42.2067 65.0971 41.4827 Z "/>
  </g>
  <path id="ID0.6274612965062261" fill="#E5E5E5" stroke="#7F7F7F" stroke-width="1.649259660752286" d="M 104.4739 29.974 L 128.1957 29.974 L 128.1957 53.2213 L 104.4739 53.2213 L 104.4739 29.974 Z "/>
  <g id="ID0.8978617256507277">
    <path id="ID0.7221970055252314" fill="none" stroke="#FF0000" stroke-width="3" stroke-linecap="round" d="M 110.5 47.5 L 122.6 35.65 "/>
    <path id="ID0.857853907160461" fill="none" stroke="#FF0000" stroke-width="3" stroke-linecap="round" d="M 110.4 35.75 L 123 47.6 "/>
  </g>
</svg>