<svg xmlns="http://www.w3.org/2000/svg" xmlns:xlink="http://www.w3.org/1999/xlink" version="1.1" width="33.775532245635986" height="20.46243143081665" viewBox="0.7355842590332031 0.7873842716217041 33.775532245635986 20.46243143081665">
  <!-- Exported by Scratch - http://scratch.mit.edu/ -->
  <path id="ID0.666787595488131" fill="#999999" stroke="#555555" stroke-width="1.3559322357177734" d="M 19.7941 7.1297 L 33.7602 7.0619 L 33.7602 14.7568 L 19.5568 14.7568 L 19.7941 7.1297 Z "/>
  <path id="ID0.535878473892808" fill="#00B2E1" stroke="#555555" stroke-width="1.5018315315246582" d="M 10.9668 1.5383 C 13.5822 1.5383 15.9521 2.6008 17.6687 4.3167 C 19.3845 6.0333 20.4471 8.4032 20.4471 11.0186 C 20.4471 13.634 19.3845 16.0039 17.6687 17.7205 C 15.9521 19.4364 13.5822 20.4989 10.9668 20.4989 C 8.3513 20.4989 5.9814 19.4364 4.2648 17.7205 C 2.549 16.0039 1.4865 13.634 1.4865 11.0186 C 1.4865 8.4032 2.549 6.0333 4.2648 4.3167 C 5.9814 2.6008 8.3513 1.5383 10.9668 1.5383 Z "/>
</svg>