<svg xmlns="http://www.w3.org/2000/svg" xmlns:xlink="http://www.w3.org/1999/xlink" version="1.1" width="36.69593095779419" height="36.70212984085083" viewBox="0.5151841640472412 0.6402842998504639 36.69593095779419 36.70212984085083">
  <!-- Exported by Scratch - http://scratch.mit.edu/ -->
  <g id="ID0.8900377708487213">
    <path id="ID0.666787595488131" fill="#999999" stroke="#555555" stroke-width="1.3559322746843863" d="M 15.2123 12.0415 L 15.2037 1.3975 L 22.8986 1.3912 L 22.9072 12.0353 L 15.2123 12.0415 Z "/>
    <path id="ID0.666787595488131" fill="#999999" stroke="#555555" stroke-width="1.3559322746843863" d="M 15.1821 36.5915 L 15.1735 25.9475 L 22.8684 25.9413 L 22.877 36.5853 L 15.1821 36.5915 Z "/>
  </g>
  <g id="ID0.8900377708487213">
    <path id="ID0.666787595488131" fill="#999999" stroke="#555555" stroke-width="1.3559322357177734" d="M 25.8161 15.2119 L 36.4602 15.2119 L 36.4602 22.9068 L 25.8161 22.9068 L 25.8161 15.2119 Z "/>
    <path id="ID0.666787595488131" fill="#999999" stroke="#555555" stroke-width="1.3559322357177734" d="M 1.2661 15.1619 L 11.9102 15.1619 L 11.9102 22.8568 L 1.2661 22.8568 L 1.2661 15.1619 Z "/>
  </g>
  <path id="ID0.535878473892808" fill="#00B2E1" stroke="#555555" stroke-width="1.5018315315246582" d="M 18.9668 9.5383 C 21.5822 9.5383 23.9521 10.6008 25.6687 12.3167 C 27.3845 14.0333 28.4471 16.4032 28.4471 19.0186 C 28.4471 21.634 27.3845 24.0039 25.6687 25.7205 C 23.9521 27.4364 21.5822 28.4989 18.9668 28.4989 C 16.3513 28.4989 13.9814 27.4364 12.2648 25.7205 C 10.549 24.0039 9.4865 21.634 9.4865 19.0186 C 9.4865 16.4032 10.549 14.0333 12.2648 12.3167 C 13.9814 10.6008 16.3513 9.5383 18.9668 9.5383 Z "/>
</svg>