<svg xmlns="http://www.w3.org/2000/svg" xmlns:xlink="http://www.w3.org/1999/xlink" version="1.1" width="130.19569396972656" height="115.96690368652344" viewBox="-0.5 -0.5 130.19569396972656 115.96690368652344">
  <!-- Exported by Scratch - http://scratch.mit.edu/ -->
  <path id="ID0.43481499468907714" fill="none" stroke="#000000" stroke-width="2" stroke-linecap="round" d="M 112 1 L 112.3 1.3 "/>
  <path id="ID0.6274612965062261" fill="#97EF6B" stroke="#7F7F7F" stroke-width="1.9406942099273685" d="M 50.5 29.3669 L 94.5 29.3669 L 94.5 68.3669 L 50.5 68.3669 L 50.5 29.3669 Z "/>
  <path id="ID0.6274612965062261" fill="#6BEFEB" stroke="#7F7F7F" stroke-width="1.9406942099273685" d="M 1 29.5169 L 45 29.5169 L 45 68.5169 L 1 68.5169 L 1 29.5169 Z "/>
  <path id="ID0.6274612965062261" fill="#EFD86B" stroke="#7F7F7F" stroke-width="1.9406942099273685" d="M 50.5 74.7169 L 94.5 74.7169 L 94.5 113.7169 L 50.5 113.7169 L 50.5 74.7169 Z "/>
  <path id="ID0.6274612965062261" fill="#EE7E76" stroke="#7F7F7F" stroke-width="1.9406942099273685" d="M 1 74.9669 L 45 74.9669 L 45 113.9669 L 1 113.9669 L 1 74.9669 Z "/>
  <g id="ID0.8773189117200673">
    <path id="ID0.666787595488131" fill="#999999" stroke="#555555" stroke-width="1.3559322755309584" d="M 23.6291 44.1374 L 36.988 40.0635 L 39.1968 47.4346 L 25.5912 51.5116 L 23.6291 44.1374 Z "/>
    <path id="ID0.535878473892808" fill="#00B2E1" stroke="#555555" stroke-width="1.50183148580604" d="M 13.6112 41.3934 C 16.1166 40.6427 18.6917 40.9802 20.8286 42.1311 C 22.965 43.2829 24.6631 45.2481 25.4138 47.7535 C 26.1646 50.2588 25.827 52.834 24.6762 54.9709 C 23.5243 57.1073 21.5592 58.8054 19.0538 59.5561 C 16.5484 60.3069 13.9733 59.9693 11.8364 58.8184 C 9.7 57.6666 8.0019 55.7015 7.2512 53.1961 C 6.5004 50.6907 6.838 48.1156 7.9888 45.9787 C 9.1407 43.8423 11.1058 42.1442 13.6112 41.3934 Z "/>
  </g>
  <g id="ID0.2842428148724139">
    <path id="ID0.666787595488131" fill="#999999" stroke="#555555" stroke-width="1.3559322445855069" d="M 68.4714 45.3955 L 57.8049 46.0177 L 60.9084 58.6941 L 70.7056 54.2365 L 68.4714 45.3955 Z "/>
    <path id="ID0.666787595488131" fill="#999999" stroke="#555555" stroke-width="1.3559322445855069" d="M 74.5161 43.8676 L 84.2636 39.4919 L 87.3671 52.1684 L 76.6186 52.7408 L 74.5161 43.8676 Z "/>
    <path id="ID0.535878473892808" fill="#00B2E1" stroke="#555555" stroke-width="1.5018315996494942" d="M 70.2723 39.8558 C 72.8127 39.2339 75.3673 39.7024 77.4427 40.9608 C 79.5175 42.2201 81.1131 44.2693 81.7351 46.8098 C 82.357 49.3502 81.8885 51.9047 80.6301 53.9801 C 79.3708 56.055 77.3216 57.6506 74.7811 58.2725 C 72.2407 58.8945 69.6861 58.426 67.6108 57.1676 C 65.5359 55.9082 63.9403 53.859 63.3184 51.3186 C 62.6964 48.7782 63.1649 46.2236 64.4233 44.1482 C 65.6826 42.0734 67.7319 40.4778 70.2723 39.8558 Z "/>
  </g>
  <g id="ID0.9985010046511889">
    <path id="ID0.666787595488131" fill="#999999" stroke="#555555" stroke-width="1.3559322506858607" d="M 23.2345 90.9038 L 36.636 86.9724 L 38.7662 94.3665 L 25.1179 98.2985 L 23.2345 90.9038 Z "/>
    <path id="ID0.666787595488131" fill="#999999" stroke="#555555" stroke-width="1.3559322506858607" d="M 19.5717 90.234 L 33.1548 86.3208 L 36.1296 96.6466 L 22.6116 100.541 L 19.5717 90.234 Z "/>
    <path id="ID0.535878473892808" fill="#00B2E1" stroke="#555555" stroke-width="1.5018315588201638" d="M 15.0971 87.4827 C 17.6104 86.7587 20.1818 87.1236 22.3063 88.2972 C 24.4303 89.4717 26.1074 91.4548 26.8314 93.968 C 27.5554 96.4813 27.1905 99.0527 26.0169 101.1772 C 24.8424 103.3012 22.8593 104.9783 20.3461 105.7023 C 17.8328 106.4263 15.2614 106.0614 13.1369 104.8878 C 11.0129 103.7133 9.3358 101.7302 8.6118 99.217 C 7.8878 96.7037 8.2527 94.1323 9.4263 92.0078 C 10.6008 89.8838 12.5839 88.2067 15.0971 87.4827 Z "/>
  </g>
  <g id="ID0.883995411451906">
    <path id="ID0.666787595488131" fill="#999999" stroke="#555555" stroke-width="1.3559322452424774" d="M 79.7949 88.6884 L 83.1119 85.5539 L 85.8367 98.3172 L 81.3609 96.673 L 79.7949 88.6884 Z "/>
    <path id="ID0.666787595488131" fill="#999999" stroke="#555555" stroke-width="1.3559322452424774" d="M 73.2874 90.023 L 79.6193 88.6713 L 81.268 96.8809 L 74.9029 98.2397 L 73.2874 90.023 Z "/>
    <path id="ID0.535878473892808" fill="#00B2E1" stroke="#555555" stroke-width="1.501831541077767" d="M 67.5499 85.835 C 70.1077 85.2889 72.6472 85.8333 74.6842 87.1529 C 76.7207 88.4735 78.2546 90.5693 78.8006 93.1271 C 79.3467 95.6849 78.8023 98.2244 77.4827 100.2614 C 76.1621 102.2978 74.0663 103.8317 71.5085 104.3778 C 68.9507 104.9238 66.4112 104.3795 64.3742 103.0598 C 62.3378 101.7393 60.8039 99.6435 60.2578 97.0857 C 59.7118 94.5279 60.2561 91.9884 61.5758 89.9514 C 62.8963 87.9149 64.9921 86.381 67.5499 85.835 Z "/>
  </g>
  <path id="ID0.6274612965062261" fill="#E5E5E5" stroke="#7F7F7F" stroke-width="1.649259660752286" d="M 104.4739 29.974 L 128.1957 29.974 L 128.1957 53.2213 L 104.4739 53.2213 L 104.4739 29.974 Z "/>
  <g id="ID0.8978617256507277">
    <path id="ID0.7221970055252314" fill="none" stroke="#FF0000" stroke-width="3" stroke-linecap="round" d="M 110.5 47.5 L 122.6 35.65 "/>
    <path id="ID0.857853907160461" fill="none" stroke="#FF0000" stroke-width="3" stroke-linecap="round" d="M 110.4 35.75 L 123 47.6 "/>
  </g>
</svg>