<svg xmlns="http://www.w3.org/2000/svg" xmlns:xlink="http://www.w3.org/1999/xlink" version="1.1" width="28.425529956817627" height="33.47962999343872" viewBox="0.7855842113494873 0.26018428802490234 28.425529956817627 33.47962999343872">
  <!-- Exported by Scratch - http://scratch.mit.edu/ -->
  <path id="ID0.666787595488131" fill="#999999" stroke="#555555" stroke-width="1.3559323343744076" d="M 13.0022 25.2925 L 20.3549 32.9889 L 25.9188 27.6734 L 18.5661 19.977 L 13.0022 25.2925 Z "/>
  <path id="ID0.666787595488131" fill="#999999" stroke="#555555" stroke-width="1.3559322357177734" d="M 17.8161 13.2119 L 28.4602 13.2119 L 28.4602 20.9068 L 17.8161 20.9068 L 17.8161 13.2119 Z "/>
  <path id="ID0.666787595488131" fill="#999999" stroke="#555555" stroke-width="1.3559322501026714" d="M 13.0021 8.7075 L 20.3549 1.0111 L 25.9188 6.3266 L 18.566 14.023 L 13.0021 8.7075 Z "/>
  <path id="ID0.535878473892808" fill="#00B2E1" stroke="#555555" stroke-width="1.5018315315246582" d="M 11.0168 7.5383 C 13.6322 7.5383 16.0021 8.6008 17.7187 10.3167 C 19.4345 12.0333 20.4971 14.4032 20.4971 17.0186 C 20.4971 19.634 19.4345 22.0039 17.7187 23.7205 C 16.0021 25.4364 13.6322 26.4989 11.0168 26.4989 C 8.4013 26.4989 6.0314 25.4364 4.3148 23.7205 C 2.599 22.0039 1.5365 19.634 1.5365 17.0186 C 1.5365 14.4032 2.599 12.0333 4.3148 10.3167 C 6.0314 8.6008 8.4013 7.5383 11.0168 7.5383 Z "/>
</svg>