<svg xmlns="http://www.w3.org/2000/svg" xmlns:xlink="http://www.w3.org/1999/xlink" version="1.1" width="130.19569396972656" height="115.96690368652344" viewBox="-0.5 -0.5 130.19569396972656 115.96690368652344">
  <!-- Exported by Scratch - http://scratch.mit.edu/ -->
  <path id="ID0.6274612965062261" fill="#97EF6B" stroke="#7F7F7F" stroke-width="1.9406942099273685" d="M 50.5 29.3669 L 94.5 29.3669 L 94.5 68.3669 L 50.5 68.3669 L 50.5 29.3669 Z "/>
  <path id="ID0.6274612965062261" fill="#6BEFEB" stroke="#7F7F7F" stroke-width="1.9406942099273685" d="M 1 29.5169 L 45 29.5169 L 45 68.5169 L 1 68.5169 L 1 29.5169 Z "/>
  <path id="ID0.6274612965062261" fill="#EE7E76" stroke="#7F7F7F" stroke-width="1.9406942099273685" d="M 1 74.9669 L 45 74.9669 L 45 113.9669 L 1 113.9669 L 1 74.9669 Z "/>
  <path id="ID0.43481499468907714" fill="none" stroke="#000000" stroke-width="2" stroke-linecap="round" d="M 112 1 L 112.3 1.3 "/>
  <g id="ID0.7800145149230957">
    <path id="ID0.666787595488131" fill="#999999" stroke="#555555" stroke-width="1.3559323361237965" d="M 23.3457 58.9478 L 32.7871 63.8629 L 36.3403 57.0374 L 26.899 52.1224 L 23.3457 58.9478 Z "/>
    <path id="ID0.666787595488131" fill="#999999" stroke="#555555" stroke-width="1.3559322139357675" d="M 24.0132 45.9781 L 34.089 42.5467 L 36.5697 49.8307 L 26.4939 53.2622 L 24.0132 45.9781 Z "/>
    <path id="ID0.666787595488131" fill="#999999" stroke="#555555" stroke-width="1.3559321976055956" d="M 17.9798 43.2122 L 22.4588 33.5563 L 29.4393 36.7943 L 24.9603 46.4502 L 17.9798 43.2122 Z "/>
    <path id="ID0.535878473892808" fill="#00B2E1" stroke="#555555" stroke-width="1.5018314654224496" d="M 15.7623 42.8339 C 18.2381 41.9907 20.824 42.2325 23.0021 43.3034 C 25.1797 44.3752 26.9495 46.276 27.7927 48.7518 C 28.6359 51.2276 28.3941 53.8135 27.3233 55.9916 C 26.2515 58.1692 24.3507 59.939 21.8749 60.7822 C 19.3991 61.6254 16.8132 61.3836 14.6351 60.3127 C 12.4574 59.241 10.6876 57.3402 9.8444 54.8644 C 9.0013 52.3886 9.2431 49.8026 10.3139 47.6245 C 11.3857 45.4469 13.2865 43.6771 15.7623 42.8339 Z "/>
  </g>
  <g id="ID0.156098160892725">
    <g id="ID0.8900377708487213">
      <path id="ID0.666787595488131" fill="#999999" stroke="#555555" stroke-width="1.3559323292502468" d="M 66.6139 43.1809 L 63.8057 32.914 L 71.228 30.8838 L 74.0362 41.1508 L 66.6139 43.1809 Z "/>
      <path id="ID0.666787595488131" fill="#999999" stroke="#555555" stroke-width="1.3559323292502468" d="M 73.0139 66.8809 L 70.2057 56.614 L 77.628 54.5838 L 80.4362 64.8508 L 73.0139 66.8809 Z "/>
    </g>
    <g id="ID0.8900377708487213">
      <path id="ID0.666787595488131" fill="#999999" stroke="#555555" stroke-width="1.3559321622279223" d="M 77.6176 43.5338 L 87.8869 40.7339 L 89.911 48.1578 L 79.6418 50.9577 L 77.6176 43.5338 Z "/>
      <path id="ID0.666787595488131" fill="#999999" stroke="#555555" stroke-width="1.3559321622279223" d="M 53.9676 49.9338 L 64.2369 47.1339 L 66.261 54.5578 L 55.9918 57.3577 L 53.9676 49.9338 Z "/>
    </g>
    <path id="ID0.535878473892808" fill="#00B2E1" stroke="#555555" stroke-width="1.501831551855534" d="M 69.5494 39.8316 C 72.0728 39.1436 74.6387 39.5453 76.7462 40.7492 C 78.8531 41.954 80.5017 43.9609 81.1896 46.4842 C 81.8776 49.0076 81.4759 51.5735 80.272 53.681 C 79.0672 55.788 77.0603 57.4365 74.537 58.1245 C 72.0136 58.8124 69.4477 58.4107 67.3402 57.2068 C 65.2333 56.002 63.5847 53.9951 62.8968 51.4718 C 62.2088 48.9484 62.6105 46.3825 63.8144 44.275 C 65.0192 42.1681 67.0261 40.5195 69.5494 39.8316 Z "/>
  </g>
  <g id="ID0.9165919194929302">
    <g id="ID0.1458420013077557">
      <path id="ID0.666787595488131" fill="#999999" stroke="#555555" stroke-width="1.355932279581674" d="M 18.3151 87.2234 L 3.8427 91.4784 L 5.98 98.8705 L 16.2053 95.9141 L 18.3151 87.2234 Z "/>
      <path id="ID0.666787595488131" fill="#999999" stroke="#555555" stroke-width="1.355932279581674" d="M 23.219 104.0145 L 8.709 108.1392 L 6.5717 100.747 L 16.7969 97.7906 L 23.219 104.0145 Z "/>
    </g>
    <g id="ID0.1458420013077557">
      <path id="ID0.666787595488131" fill="#999999" stroke="#555555" stroke-width="1.355932279581674" d="M 22.931 85.8355 L 37.441 81.7108 L 39.5783 89.103 L 29.3531 92.0594 L 22.931 85.8355 Z "/>
      <path id="ID0.666787595488131" fill="#999999" stroke="#555555" stroke-width="1.355932279581674" d="M 27.7849 102.7266 L 42.2573 98.4716 L 40.12 91.0795 L 29.8947 94.0359 L 27.7849 102.7266 Z "/>
    </g>
    <path id="ID0.535878473892808" fill="#00B2E1" stroke="#555555" stroke-width="1.5018315187219338" d="M 20.3622 85.832 C 22.8747 85.1055 25.4465 85.468 27.5721 86.6396 C 29.6973 87.812 31.3762 89.7936 32.1027 92.3061 C 32.8291 94.8186 32.4666 97.3904 31.2951 99.516 C 30.1226 101.6411 28.1411 103.3201 25.6286 104.0465 C 23.116 104.773 20.5443 104.4105 18.4186 103.2389 C 16.2935 102.0665 14.6145 100.085 13.8881 97.5724 C 13.1617 95.0599 13.5241 92.4881 14.6957 90.3625 C 15.8682 88.2374 17.8497 86.5584 20.3622 85.832 Z "/>
  </g>
  <path id="ID0.6274612965062261" fill="#E5E5E5" stroke="#7F7F7F" stroke-width="1.649259660752286" d="M 104.4739 29.974 L 128.1957 29.974 L 128.1957 53.2213 L 104.4739 53.2213 L 104.4739 29.974 Z "/>
  <g id="ID0.8978617256507277">
    <path id="ID0.7221970055252314" fill="none" stroke="#FF0000" stroke-width="3" stroke-linecap="round" d="M 110.5 47.5 L 122.6 35.65 "/>
    <path id="ID0.857853907160461" fill="none" stroke="#FF0000" stroke-width="3" stroke-linecap="round" d="M 110.4 35.75 L 123 47.6 "/>
  </g>
</svg>