<svg xmlns="http://www.w3.org/2000/svg" xmlns:xlink="http://www.w3.org/1999/xlink" version="1.1" width="130.19569396972656" height="70.51689910888672" viewBox="-0.5 -0.5 130.19569396972656 70.51689910888672">
  <!-- Exported by Scratch - http://scratch.mit.edu/ -->
  <path id="ID0.43481499468907714" fill="none" stroke="#000000" stroke-width="2" stroke-linecap="round" d="M 112 1 L 112.3 1.3 "/>
  <path id="ID0.6274612965062261" fill="#6BEFEB" stroke="#7F7F7F" stroke-width="1.9406942099273685" d="M 1 29.5169 L 45 29.5169 L 45 68.5169 L 1 68.5169 L 1 29.5169 Z "/>
  <g id="ID0.9629361242987216">
    <path id="ID0.517707219813019" fill="#4F5A5D" stroke="none" stroke-linecap="round" d="M 11.0945 46.16 L 19.1699 37.6729 L 30.5673 40.2478 L 33.9688 51.7556 L 25.9304 60.5446 L 14.4535 57.524 L 11.0945 46.16 Z " stroke-width="0.999999969044552"/>
    <path id="ID0.535878473892808" fill="#00B2E1" stroke="#555555" stroke-width="1.5018315059388936" d="M 19.9128 40.0318 C 22.421 39.2904 24.9948 39.6376 27.1274 40.7965 C 29.2594 41.9563 30.9502 43.9278 31.6915 46.436 C 32.4329 48.9442 32.0857 51.518 30.9268 53.6506 C 29.767 55.7826 27.7955 57.4734 25.2874 58.2147 C 22.7792 58.9561 20.2053 58.6089 18.0728 57.45 C 15.9407 56.2902 14.25 54.3187 13.5086 51.8106 C 12.7672 49.3024 13.1144 46.7285 14.2733 44.596 C 15.4331 42.4639 17.4046 40.7732 19.9128 40.0318 Z "/>
  </g>
  <path id="ID0.6274612965062261" fill="#E5E5E5" stroke="#7F7F7F" stroke-width="1.649259660752286" d="M 104.4739 29.974 L 128.1957 29.974 L 128.1957 53.2213 L 104.4739 53.2213 L 104.4739 29.974 Z "/>
  <g id="ID0.8978617256507277">
    <path id="ID0.7221970055252314" fill="none" stroke="#FF0000" stroke-width="3" stroke-linecap="round" d="M 110.5 47.5 L 122.6 35.65 "/>
    <path id="ID0.857853907160461" fill="none" stroke="#FF0000" stroke-width="3" stroke-linecap="round" d="M 110.4 35.75 L 123 47.6 "/>
  </g>
</svg>