<svg xmlns="http://www.w3.org/2000/svg" xmlns:xlink="http://www.w3.org/1999/xlink" version="1.1" width="130.19569396972656" height="115.96690368652344" viewBox="-0.5 -0.5 130.19569396972656 115.96690368652344">
  <!-- Exported by Scratch - http://scratch.mit.edu/ -->
  <path id="ID0.43481499468907714" fill="none" stroke="#000000" stroke-width="2" stroke-linecap="round" d="M 112 1 L 112.3 1.3 "/>
  <path id="ID0.6274612965062261" fill="#97EF6B" stroke="#7F7F7F" stroke-width="1.9406942099273685" d="M 50.5 29.3669 L 94.5 29.3669 L 94.5 68.3669 L 50.5 68.3669 L 50.5 29.3669 Z "/>
  <path id="ID0.6274612965062261" fill="#6BEFEB" stroke="#7F7F7F" stroke-width="1.9406942099273685" d="M 1 29.5169 L 45 29.5169 L 45 68.5169 L 1 68.5169 L 1 29.5169 Z "/>
  <path id="ID0.6274612965062261" fill="#EFD86B" stroke="#7F7F7F" stroke-width="1.9406942099273685" d="M 50.5 74.7169 L 94.5 74.7169 L 94.5 113.7169 L 50.5 113.7169 L 50.5 74.7169 Z "/>
  <path id="ID0.6274612965062261" fill="#EE7E76" stroke="#7F7F7F" stroke-width="1.9406942099273685" d="M 1 74.9669 L 45 74.9669 L 45 113.9669 L 1 113.9669 L 1 74.9669 Z "/>
  <g id="ID0.6782146533951163">
    <g id="ID0.1458420013077557">
      <path id="ID0.666787595488131" fill="#999999" stroke="#555555" stroke-width="1.355932233954502" d="M 18.6487 86.5596 L 4.0276 90.2713 L 5.8874 97.7381 L 16.2159 95.1655 L 18.6487 86.5596 Z "/>
      <path id="ID0.666787595488131" fill="#999999" stroke="#555555" stroke-width="1.355932233954502" d="M 22.8641 103.538 L 8.2102 107.1181 L 6.3504 99.6513 L 16.6789 97.0787 L 22.8641 103.538 Z "/>
    </g>
    <g id="ID0.1458420013077557">
      <path id="ID0.666787595488131" fill="#999999" stroke="#555555" stroke-width="1.355932233954502" d="M 23.3359 85.362 L 37.9898 81.7819 L 39.8496 89.2487 L 29.5211 91.8213 L 23.3359 85.362 Z "/>
      <path id="ID0.666787595488131" fill="#999999" stroke="#555555" stroke-width="1.355932233954502" d="M 27.6013 102.3904 L 42.2224 98.6787 L 40.3626 91.2119 L 30.0341 93.7845 L 27.6013 102.3904 Z "/>
    </g>
    <path id="ID0.535878473892808" fill="#00B2E1" stroke="#555555" stroke-width="1.501831490807894" d="M 20.7279 85.2247 C 23.2658 84.5925 25.8223 85.0508 27.9027 86.3009 C 29.9825 87.5519 31.5864 89.5947 32.2185 92.1326 C 32.8507 94.6705 32.3924 97.2269 31.1423 99.3073 C 29.8913 101.3872 27.8485 102.991 25.3106 103.6232 C 22.7727 104.2553 20.2163 103.797 18.1359 102.547 C 16.056 101.296 14.4522 99.2532 13.82 96.7153 C 13.1879 94.1774 13.6462 91.6209 14.8962 89.5405 C 16.1472 87.4607 18.19 85.8568 20.7279 85.2247 Z "/>
  </g>
  <g id="ID0.583165711723268">
    <g id="ID0.8900377708487213">
      <path id="ID0.666787595488131" fill="#999999" stroke="#555555" stroke-width="1.355932386962925" d="M 66.5905 43.1825 L 63.8227 32.9045 L 71.2529 30.9036 L 74.0207 41.1816 L 66.5905 43.1825 Z "/>
      <path id="ID0.666787595488131" fill="#999999" stroke="#555555" stroke-width="1.355932386962925" d="M 72.9405 66.9325 L 70.1727 56.6545 L 77.6029 54.6536 L 80.3707 64.9316 L 72.9405 66.9325 Z "/>
    </g>
    <g id="ID0.8900377708487213">
      <path id="ID0.666787595488131" fill="#999999" stroke="#555555" stroke-width="1.355932217770983" d="M 77.6154 43.5601 L 87.8956 40.8007 L 89.8905 48.2325 L 79.6103 50.992 L 77.6154 43.5601 Z "/>
      <path id="ID0.666787595488131" fill="#999999" stroke="#555555" stroke-width="1.355932217770983" d="M 53.9154 49.9101 L 64.1956 47.1507 L 66.1905 54.5825 L 55.9103 57.342 L 53.9154 49.9101 Z "/>
    </g>
    <path id="ID0.535878473892808" fill="#00B2E1" stroke="#555555" stroke-width="1.5018315242214526" d="M 69.5677 39.8532 C 72.0937 39.1752 74.6581 39.587 76.7608 40.7992 C 78.863 42.0122 80.5036 44.0256 81.1816 46.5517 C 81.8597 49.0777 81.4479 51.642 80.2357 53.7447 C 79.0226 55.8469 77.0092 57.4876 74.4832 58.1656 C 71.9572 58.8436 69.3929 58.4318 67.2901 57.2197 C 65.1879 56.0066 63.5473 53.9932 62.8693 51.4672 C 62.1912 48.9412 62.6031 46.3768 63.8152 44.2741 C 65.0283 42.1719 67.0417 40.5313 69.5677 39.8532 Z "/>
  </g>
  <g id="ID0.03591398149728775">
    <path id="ID0.666787595488131" fill="#999999" stroke="#555555" stroke-width="1.3559323067002165" d="M 8.7162 56.4542 L 16.89 49.6361 L 21.8189 55.5452 L 13.6452 62.3632 L 8.7162 56.4542 Z "/>
    <path id="ID0.666787595488131" fill="#999999" stroke="#555555" stroke-width="1.3559322959455382" d="M 27.6651 43.4582 L 37.9537 40.7306 L 39.9257 48.1685 L 29.637 50.8962 L 27.6651 43.4582 Z "/>
    <path id="ID0.666787595488131" fill="#999999" stroke="#555555" stroke-width="1.3559322290799587" d="M 6.9033 48.7869 L 17.3812 50.6601 L 18.7354 43.0853 L 8.2574 41.2121 L 6.9033 48.7869 Z "/>
    <path id="ID0.535878473892808" fill="#00B2E1" stroke="#555555" stroke-width="1.5018315203326413" d="M 19.5942 39.7476 C 22.1223 39.0774 24.6854 39.4971 26.7844 40.7158 C 28.8828 41.9353 30.5172 43.9538 31.1874 46.4819 C 31.8577 49.01 31.4379 51.573 30.2193 53.672 C 28.9997 55.7704 26.9813 57.4048 24.4532 58.0751 C 21.9251 58.7453 19.362 58.3256 17.263 57.1069 C 15.1646 55.8874 13.5302 53.8689 12.86 51.3408 C 12.1897 48.8127 12.6095 46.2496 13.8281 44.1507 C 15.0477 42.0522 17.0661 40.4178 19.5942 39.7476 Z "/>
  </g>
  <g id="ID0.18891568202525377">
    <g id="ID0.2200954114086926">
      <path id="ID0.666787595488131" fill="#999999" stroke="#555555" stroke-width="1.3559322812708352" d="M 81.0624 85.8905 L 87.0477 83.6997 L 88.9687 88.6993 L 82.8884 90.9266 L 81.0624 85.8905 Z "/>
      <path id="ID0.666787595488131" fill="#999999" stroke="#555555" stroke-width="1.3559322812708352" d="M 77.3915 85.8741 L 81.4415 85.2622 L 83.7272 91.2111 L 80.2631 93.6315 L 77.3915 85.8741 Z "/>
    </g>
    <g id="ID0.2200954114086926">
      <path id="ID0.666787595488131" fill="#999999" stroke="#555555" stroke-width="1.3559321677034701" d="M 60.8953 87.2928 L 56.0109 83.1982 L 59.3857 79.0393 L 64.3491 83.1981 L 60.8953 87.2928 Z "/>
      <path id="ID0.666787595488131" fill="#999999" stroke="#555555" stroke-width="1.3559321677034701" d="M 62.698 90.576 L 60.1474 87.3711 L 64.1631 82.4226 L 67.9888 84.2175 L 62.698 90.576 Z "/>
    </g>
    <g id="ID0.2200954114086926">
      <path id="ID0.666787595488131" fill="#999999" stroke="#555555" stroke-width="1.3559321389912142" d="M 67.3381 103.2918 L 66.452 109.6036 L 71.7434 110.4327 L 72.6452 104.0205 L 67.3381 103.2918 Z "/>
      <path id="ID0.666787595488131" fill="#999999" stroke="#555555" stroke-width="1.3559321389912142" d="M 66.4818 99.6529 L 66.7333 103.7412 L 73.0293 104.7277 L 74.669 100.8329 L 66.4818 99.6529 Z "/>
    </g>
    <path id="ID0.535878473892808" fill="#00B2E1" stroke="#555555" stroke-width="1.5018315708304435" d="M 68.2444 83.6757 C 70.6858 82.7377 73.2791 82.8796 75.4969 83.8656 C 77.7142 84.8526 79.5561 86.6837 80.4941 89.1251 C 81.4322 91.5666 81.2903 94.1599 80.3043 96.3777 C 79.3173 98.595 77.4862 100.4368 75.0447 101.3749 C 72.6033 102.3129 70.01 102.1711 67.7922 101.1851 C 65.5749 100.1981 63.733 98.3669 62.795 95.9255 C 61.8569 93.4841 61.9988 90.8908 62.9848 88.673 C 63.9718 86.4556 65.8029 84.6138 68.2444 83.6757 Z "/>
  </g>
  <path id="ID0.6274612965062261" fill="#E5E5E5" stroke="#7F7F7F" stroke-width="1.649259660752286" d="M 104.4739 29.974 L 128.1957 29.974 L 128.1957 53.2213 L 104.4739 53.2213 L 104.4739 29.974 Z "/>
  <g id="ID0.8978617256507277">
    <path id="ID0.7221970055252314" fill="none" stroke="#FF0000" stroke-width="3" stroke-linecap="round" d="M 110.5 47.5 L 122.6 35.65 "/>
    <path id="ID0.857853907160461" fill="none" stroke="#FF0000" stroke-width="3" stroke-linecap="round" d="M 110.4 35.75 L 123 47.6 "/>
  </g>
</svg>