<svg xmlns="http://www.w3.org/2000/svg" xmlns:xlink="http://www.w3.org/1999/xlink" version="1.1" width="28.425529956817627" height="20.46243143081665" viewBox="0.7855842113494873 0.7873842716217041 28.425529956817627 20.46243143081665">
  <!-- Exported by Scratch - http://scratch.mit.edu/ -->
  <path id="ID0.666787595488131" fill="#999999" stroke="#555555" stroke-width="1.3559322357177734" d="M 17.8161 7.2119 L 28.4602 7.2119 L 28.4602 14.9068 L 17.8161 14.9068 L 17.8161 7.2119 Z "/>
  <path id="ID0.535878473892808" fill="#F14E54" stroke="#555555" stroke-width="1.5018315315246582" d="M 11.0168 1.5383 C 13.6322 1.5383 16.0021 2.6008 17.7187 4.3167 C 19.4345 6.0333 20.4971 8.4032 20.4971 11.0186 C 20.4971 13.634 19.4345 16.0039 17.7187 17.7205 C 16.0021 19.4364 13.6322 20.4989 11.0168 20.4989 C 8.4013 20.4989 6.0314 19.4364 4.3148 17.7205 C 2.599 16.0039 1.5365 13.634 1.5365 11.0186 C 1.5365 8.4032 2.599 6.0333 4.3148 4.3167 C 6.0314 2.6008 8.4013 1.5383 11.0168 1.5383 Z "/>
</svg>