<svg xmlns="http://www.w3.org/2000/svg" xmlns:xlink="http://www.w3.org/1999/xlink" version="1.1" width="137.5500030517578" height="115.96690368652344" viewBox="-0.5 -0.5 137.5500030517578 115.96690368652344">
  <!-- Exported by Scratch - http://scratch.mit.edu/ -->
  <path id="ID0.43481499468907714" fill="none" stroke="#000000" stroke-width="2" stroke-linecap="round" d="M 135.25 1 L 135.55 1.3 "/>
  <path id="ID0.6274612965062261" fill="#97EF6B" stroke="#7F7F7F" stroke-width="1.9406942099273685" d="M 50.5 29.3669 L 94.5 29.3669 L 94.5 68.3669 L 50.5 68.3669 L 50.5 29.3669 Z "/>
  <path id="ID0.6274612965062261" fill="#6BEFEB" stroke="#7F7F7F" stroke-width="1.9406942099273685" d="M 1 29.5169 L 45 29.5169 L 45 68.5169 L 1 68.5169 L 1 29.5169 Z "/>
  <path id="ID0.6274612965062261" fill="#EFD86B" stroke="#7F7F7F" stroke-width="1.9406942099273685" d="M 50.5 74.7169 L 94.5 74.7169 L 94.5 113.7169 L 50.5 113.7169 L 50.5 74.7169 Z "/>
  <path id="ID0.6274612965062261" fill="#EE7E76" stroke="#7F7F7F" stroke-width="1.9406942099273685" d="M 1 74.9669 L 45 74.9669 L 45 113.9669 L 1 113.9669 L 1 74.9669 Z "/>
  <g id="ID0.16833267826586962">
    <path id="ID0.666787595488131" fill="#999999" stroke="#555555" stroke-width="1.355932193699316" d="M 17.7082 42.0275 L 32.1145 37.5538 L 34.4295 44.8922 L 24.2786 48.0945 L 17.7082 42.0275 Z "/>
    <path id="ID0.666787595488131" fill="#999999" stroke="#555555" stroke-width="1.355932193699316" d="M 23.0227 58.7475 L 37.3881 54.1445 L 35.0731 46.8061 L 24.9222 50.0084 L 23.0227 58.7475 Z "/>
    <path id="ID0.535878473892808" fill="#00B2E1" stroke="#555555" stroke-width="1.5018315445131807" d="M 15.1916 42.1941 C 17.6859 41.4072 20.2656 41.7075 22.4189 42.8275 C 24.5717 43.9483 26.298 45.8887 27.0849 48.383 C 27.8718 50.8773 27.5714 53.457 26.4515 55.6103 C 25.3307 57.7631 23.3903 59.4894 20.896 60.2763 C 18.4017 61.0631 15.822 60.7628 13.6687 59.6429 C 11.5159 58.522 9.7896 56.5816 9.0027 54.0874 C 8.2158 51.5931 8.5162 49.0133 9.6361 46.86 C 10.7569 44.7073 12.6973 42.9809 15.1916 42.1941 Z "/>
  </g>
  <g id="ID0.6860227221623063">
    <path id="ID0.666787595488131" fill="#999999" stroke="#555555" stroke-width="1.3559323120376912" d="M 24.1584 89.1933 L 33.5404 84.0807 L 37.6099 96.4808 L 26.9373 97.8784 L 24.1584 89.1933 Z "/>
    <path id="ID0.535878473892808" fill="#00B2E1" stroke="#555555" stroke-width="1.5018315007923573" d="M 16.052 86.7527 C 18.5371 85.9372 21.1201 86.2078 23.2861 87.3028 C 25.4517 88.3988 27.2002 90.3192 28.0158 92.8042 C 28.8313 95.2892 28.5607 97.8723 27.4657 100.0383 C 26.3697 102.2039 24.4493 103.9524 21.9643 104.768 C 19.4792 105.5835 16.8962 105.3129 14.7302 104.2179 C 12.5646 103.1219 10.8161 101.2015 10.0005 98.7165 C 9.185 96.2314 9.4556 93.6484 10.5506 91.4823 C 11.6466 89.3168 13.567 87.5682 16.052 86.7527 Z "/>
  </g>
  <g id="ID0.38306074868887663">
    <path id="ID0.666787595488131" fill="#999999" stroke="#555555" stroke-width="1.3559323146651656" d="M 72.2259 45.6062 L 85.4766 41.1933 L 87.8725 48.5057 L 74.3752 52.9281 L 72.2259 45.6062 Z "/>
    <path id="ID0.535878473892808" fill="#00B2E1" stroke="#555555" stroke-width="1.5018316193449193" d="M 64.723 42.2046 C 67.2084 41.3902 69.7913 41.6621 71.9569 42.7581 C 74.1219 43.8552 75.8695 45.7764 76.6839 48.2618 C 77.4982 50.7473 77.2264 53.3302 76.1303 55.4957 C 75.0333 57.6607 73.112 59.4084 70.6266 60.2227 C 68.1412 61.0371 65.5583 60.7652 63.3928 59.6692 C 61.2277 58.5721 59.4801 56.6509 58.6657 54.1655 C 57.8514 51.68 58.1232 49.0971 59.2193 46.9316 C 60.3163 44.7666 62.2376 43.0189 64.723 42.2046 Z "/>
  </g>
  <g id="ID0.9803268644027412">
    <path id="ID0.666787595488131" fill="#999999" stroke="#555555" stroke-width="1.3559322621907486" d="M 76.0283 89.5811 L 85.9798 85.8043 L 88.7102 92.9985 L 78.7587 96.7754 L 76.0283 89.5811 Z "/>
    <path id="ID0.666787595488131" fill="#999999" stroke="#555555" stroke-width="1.3559322621907486" d="M 56.2783 96.9811 L 66.2298 93.2043 L 68.9602 100.3985 L 59.0087 104.1754 L 56.2783 96.9811 Z "/>
    <path id="ID0.535878473892808" fill="#00B2E1" stroke="#555555" stroke-width="1.5018315228741026" d="M 67.5884 86.7066 C 70.0336 85.7786 72.6263 85.9311 74.84 86.9262 C 77.0533 87.9222 78.8877 89.7609 79.8157 92.2061 C 80.7437 94.6514 80.5912 97.2441 79.5961 99.4578 C 78.6001 101.6711 76.7614 103.5054 74.3162 104.4335 C 71.8709 105.3615 69.2782 105.209 67.0645 104.2139 C 64.8512 103.2178 63.0169 101.3792 62.0888 98.9339 C 61.1608 96.4887 61.3133 93.896 62.3084 91.6822 C 63.3044 89.4689 65.1431 87.6346 67.5884 86.7066 Z "/>
  </g>
  <path id="ID0.6274612965062261" fill="#E5E5E5" stroke="#7F7F7F" stroke-width="1.649259660752286" d="M 104.5739 29.974 L 128.2957 29.974 L 128.2957 53.2213 L 104.5739 53.2213 L 104.5739 29.974 Z "/>
  <g id="ID0.8978617256507277">
    <path id="ID0.7221970055252314" fill="none" stroke="#FF0000" stroke-width="3" stroke-linecap="round" d="M 110.5 47.5 L 122.6 35.65 "/>
    <path id="ID0.857853907160461" fill="none" stroke="#FF0000" stroke-width="3" stroke-linecap="round" d="M 110.4 35.75 L 123 47.6 "/>
  </g>
</svg>