<svg xmlns="http://www.w3.org/2000/svg" xmlns:xlink="http://www.w3.org/1999/xlink" version="1.1" width="30.32533311843872" height="35.19523286819458" viewBox="0.9196841716766357 0.30238425731658936 30.32533311843872 35.19523286819458">
  <!-- Exported by Scratch - http://scratch.mit.edu/ -->
  <g id="ID0.8090482093393803">
    <g id="ID0.2200954114086926">
      <path id="ID0.666787595488131" fill="#999999" stroke="#555555" stroke-width="1.3559322357177734" d="M 24.1212 15.261 L 30.4941 15.3627 L 30.4941 20.7186 L 24.0195 20.617 L 24.1212 15.261 Z "/>
      <path id="ID0.666787595488131" fill="#999999" stroke="#555555" stroke-width="1.3559322357177734" d="M 20.6178 13.8856 L 24.6178 14.767 L 24.6178 21.1398 L 20.5161 22.1568 L 20.6178 13.8856 Z "/>
    </g>
    <g id="ID0.2200954114086926">
      <path id="ID0.666787595488131" fill="#999999" stroke="#555555" stroke-width="1.3559321566040696" d="M 4.7615 9.2991 L 1.6706 3.725 L 6.3126 1.0533 L 9.4542 6.7155 L 4.7615 9.2991 Z "/>
      <path id="ID0.666787595488131" fill="#999999" stroke="#555555" stroke-width="1.3559321566040696" d="M 5.2862 13.0031 L 4.0548 9.0966 L 9.5781 5.9176 L 12.5056 8.9652 L 5.2862 13.0031 Z "/>
    </g>
    <g id="ID0.2200954114086926">
      <path id="ID0.666787595488131" fill="#999999" stroke="#555555" stroke-width="1.3559321566040696" d="M 5.0115 26.5009 L 1.9206 32.075 L 6.5626 34.7467 L 9.7042 29.0845 L 5.0115 26.5009 Z "/>
      <path id="ID0.666787595488131" fill="#999999" stroke="#555555" stroke-width="1.3559321566040696" d="M 5.5362 22.7969 L 4.3048 26.7034 L 9.8281 29.8824 L 12.7556 26.8348 L 5.5362 22.7969 Z "/>
    </g>
    <path id="ID0.535878473892808" fill="#F14E54" stroke="#555555" stroke-width="1.5018315315246582" d="M 12.9668 8.5383 C 15.5822 8.5383 17.9521 9.6008 19.6687 11.3167 C 21.3845 13.0333 22.4471 15.4032 22.4471 18.0186 C 22.4471 20.634 21.3845 23.0039 19.6687 24.7205 C 17.9521 26.4364 15.5822 27.4989 12.9668 27.4989 C 10.3513 27.4989 7.9814 26.4364 6.2648 24.7205 C 4.549 23.0039 3.4865 20.634 3.4865 18.0186 C 3.4865 15.4032 4.549 13.0333 6.2648 11.3167 C 7.9814 9.6008 10.3513 8.5383 12.9668 8.5383 Z "/>
  </g>
</svg>