<svg xmlns="http://www.w3.org/2000/svg" xmlns:xlink="http://www.w3.org/1999/xlink" version="1.1" width="22.561827659606934" height="22.5618257522583" viewBox="-0.0230637788772583 0.613436222076416 22.561827659606934 22.5618257522583">
  <!-- Exported by Scratch - http://scratch.mit.edu/ -->
  <path id="ID0.16053227661177516" fill="none" stroke="#FFFFFF" stroke-width="2.472527503967285" d="M 11.2578 1.8497 C 14.0295 1.8497 16.5404 2.9747 18.3589 4.7933 C 20.1775 6.6118 21.3025 9.1227 21.3025 11.8944 C 21.3025 14.6661 20.1775 17.1769 18.3589 18.9955 C 16.5404 20.814 14.0295 21.939 11.2578 21.939 C 8.4861 21.939 5.9753 20.814 4.1567 18.9955 C 2.3382 17.1769 1.2132 14.6661 1.2132 11.8944 C 1.2132 9.1227 2.3382 6.6118 4.1567 4.7933 C 5.9753 2.9747 8.4861 1.8497 11.2578 1.8497 Z "/>
  <path id="ID0.3912192960269749" fill="#FF00BF" stroke="none" d="M 11.4 6.95 C 12.7248 6.95 13.9248 7.4876 14.7936 8.3564 C 15.6624 9.2252 16.2 10.4252 16.2 11.75 C 16.2 13.0748 15.6624 14.2748 14.7936 15.1436 C 13.9248 16.0124 12.7248 16.55 11.4 16.55 C 10.0752 16.55 8.8752 16.0124 8.0064 15.1436 C 7.1376 14.2748 6.6 13.0748 6.6 11.75 C 6.6 10.4252 7.1376 9.2252 8.0064 8.3564 C 8.8752 7.4876 10.0752 6.95 11.4 6.95 Z " stroke-width="1.2000000476837158"/>
</svg>