<svg xmlns="http://www.w3.org/2000/svg" xmlns:xlink="http://www.w3.org/1999/xlink" version="1.1" width="15.667999267578125" height="61.867000579833984" viewBox="0.16600000858306885 -0.4169999957084656 15.667999267578125 61.867000579833984">
  <defs>
    <linearGradient id="grad_1" x1="32" y1="159.1665" x2="32" y2="98.2998" gradientUnits="userSpaceOnUse">
      <stop offset="0" stop-color="#FFDC3C"/>
      <stop offset="1" stop-color="#FFDC3C" stop-opacity="0"/>
    </linearGradient>
  <linearGradient id="grad_1-,0,0,-1,-24,159.25" x1="8" y1="0.0835" x2="8" y2="60.9502" gradientUnits="userSpaceOnUse">
      <stop offset="0" stop-color="#FFDC3C"/>
      <stop offset="1" stop-color="#FFDC3C" stop-opacity="0"/>
    </linearGradient></defs>
  <!-- Exported by Scratch - http://scratch.mit.edu/ -->
  <g id="ID0.04411588842049241">
    <path id="ID0.605877926107496" fill="url(#grad_1-,0,0,-1,-24,159.25)" d="M 15.3 0.083 C 15.31 0.139 15.334 0.19 15.334 0.25 C 15.334 0.802 14.886 1.25 14.334 1.25 L 11.2 1.25 L 11.2 2.958 C 11.2 4.439 10.115 5.664 8.7 5.9 L 8.7 7.599 C 10.115 7.835 11.2 9.06 11.2 10.541 L 11.2 13.958 C 11.2 15.439 10.115 16.664 8.7 16.9 L 8.7 18.599 C 10.115 18.835 11.2 20.06 11.2 21.541 L 11.2 24.958 C 11.2 26.439 10.115 27.664 8.7 27.9 L 8.7 29.599 C 10.115 29.835 11.2 31.06 11.2 32.541 L 11.2 35.958 C 11.2 37.439 10.115 38.664 8.7 38.9 L 8.7 40.599 C 10.115 40.835 11.2 42.06 11.2 43.541 L 11.2 46.958 C 11.2 48.439 10.115 49.664 8.7 49.9 L 8.7 51.599 C 10.115 51.835 11.2 53.06 11.2 54.541 L 11.2 57.958 C 11.2 59.607 9.858 60.95 8.208 60.95 L 7.791 60.95 C 6.142 60.95 4.799 59.608 4.799 57.958 L 4.799 54.541 C 4.799 53.06 5.884 51.835 7.299 51.599 L 7.299 49.9 C 5.884 49.664 4.799 48.439 4.799 46.958 L 4.799 43.541 C 4.799 42.06 5.884 40.835 7.299 40.599 L 7.299 38.9 C 5.884 38.664 4.799 37.439 4.799 35.958 L 4.799 32.541 C 4.799 31.06 5.884 29.835 7.299 29.599 L 7.299 27.9 C 5.884 27.664 4.799 26.439 4.799 24.958 L 4.799 21.541 C 4.799 20.06 5.884 18.835 7.299 18.599 L 7.299 16.9 C 5.884 16.664 4.799 15.439 4.799 13.958 L 4.799 10.541 C 4.799 9.06 5.884 7.835 7.299 7.599 L 7.299 5.9 C 5.884 5.664 4.799 4.439 4.799 2.958 L 4.799 1.25 L 1.666 1.25 C 1.114 1.25 0.666 0.802 0.666 0.25 C 0.666 0.191 0.69 0.14 0.7 0.083 L 15.3 0.083 Z M 6.2 54.542 L 6.2 57.959 C 6.2 58.836 6.914 59.55 7.791 59.55 L 8.208 59.55 C 9.085 59.55 9.799 58.836 9.799 57.959 L 9.799 54.542 C 9.799 53.837 9.335 53.245 8.699 53.037 L 8.699 53.75 C 8.699 54.137 8.386 54.45 7.999 54.45 C 7.612 54.45 7.299 54.137 7.299 53.75 L 7.299 53.036 C 6.664 53.244 6.2 53.837 6.2 54.542 Z M 6.2 43.542 L 6.2 46.959 C 6.2 47.664 6.664 48.256 7.3 48.464 L 7.3 47.75 C 7.3 47.363 7.613 47.05 8 47.05 C 8.387 47.05 8.7 47.363 8.7 47.75 L 8.7 48.464 C 9.336 48.256 9.8 47.663 9.8 46.959 L 9.8 43.542 C 9.8 42.837 9.336 42.245 8.7 42.037 L 8.7 42.75 C 8.7 43.137 8.387 43.45 8 43.45 C 7.613 43.45 7.3 43.137 7.3 42.75 L 7.3 42.036 C 6.664 42.244 6.2 42.837 6.2 43.542 Z M 6.2 32.542 L 6.2 35.959 C 6.2 36.664 6.664 37.256 7.3 37.464 L 7.3 36.75 C 7.3 36.363 7.613 36.05 8 36.05 C 8.387 36.05 8.7 36.363 8.7 36.75 L 8.7 37.464 C 9.336 37.256 9.8 36.663 9.8 35.959 L 9.8 32.542 C 9.8 31.837 9.336 31.245 8.7 31.037 L 8.7 31.75 C 8.7 32.137 8.387 32.45 8 32.45 C 7.613 32.45 7.3 32.137 7.3 31.75 L 7.3 31.036 C 6.664 31.244 6.2 31.837 6.2 32.542 Z M 6.2 21.542 L 6.2 24.959 C 6.2 25.664 6.664 26.256 7.3 26.464 L 7.3 25.75 C 7.3 25.363 7.613 25.05 8 25.05 C 8.387 25.05 8.7 25.363 8.7 25.75 L 8.7 26.464 C 9.336 26.256 9.8 25.663 9.8 24.959 L 9.8 21.542 C 9.8 20.837 9.336 20.245 8.7 20.037 L 8.7 20.75 C 8.7 21.137 8.387 21.45 8 21.45 C 7.613 21.45 7.3 21.137 7.3 20.75 L 7.3 20.036 C 6.664 20.244 6.2 20.837 6.2 21.542 Z M 6.2 10.542 L 6.2 13.959 C 6.2 14.664 6.664 15.256 7.3 15.464 L 7.3 14.75 C 7.3 14.363 7.613 14.05 8 14.05 C 8.387 14.05 8.7 14.363 8.7 14.75 L 8.7 15.464 C 9.336 15.256 9.8 14.663 9.8 13.959 L 9.8 10.542 C 9.8 9.837 9.336 9.245 8.7 9.037 L 8.7 9.75 C 8.7 10.137 8.387 10.45 8 10.45 C 7.613 10.45 7.3 10.137 7.3 9.75 L 7.3 9.036 C 6.664 9.244 6.2 9.837 6.2 10.542 Z M 6.2 2.958 C 6.2 3.663 6.664 4.255 7.3 4.463 L 7.3 3.749 C 7.3 3.362 7.613 3.049 8 3.049 C 8.387 3.049 8.7 3.362 8.7 3.749 L 8.7 4.463 C 9.336 4.255 9.8 3.662 9.8 2.958 L 9.8 1.25 L 6.2 1.25 L 6.2 2.958 Z " stroke-width="1"/>
  </g>
</svg>