<svg xmlns="http://www.w3.org/2000/svg" xmlns:xlink="http://www.w3.org/1999/xlink" version="1.1" width="22.561827659606934" height="22.5618257522583" viewBox="-0.0230637788772583 0.613436222076416 22.561827659606934 22.5618257522583">
  <!-- Exported by Scratch - http://scratch.mit.edu/ -->
  <path id="ID0.16053227661177516" fill="none" stroke="#FFFFFF" stroke-width="2.472527503967285" d="M 11.2578 1.8497 C 14.0295 1.8497 16.5404 2.9747 18.3589 4.7933 C 20.1775 6.6118 21.3025 9.1227 21.3025 11.8944 C 21.3025 14.6661 20.1775 17.1769 18.3589 18.9955 C 16.5404 20.814 14.0295 21.939 11.2578 21.939 C 8.4861 21.939 5.9753 20.814 4.1567 18.9955 C 2.3382 17.1769 1.2132 14.6661 1.2132 11.8944 C 1.2132 9.1227 2.3382 6.6118 4.1567 4.7933 C 5.9753 2.9747 8.4861 1.8497 11.2578 1.8497 Z "/>
  <path id="ID0.3912192960269749" fill="#00FFFF" stroke="none" d="M 11.2813 6.9641 C 12.6406 6.9641 13.8718 7.5157 14.7632 8.4071 C 15.6547 9.2985 16.2063 10.5298 16.2063 11.8891 C 16.2063 13.2484 15.6547 14.4796 14.7632 15.371 C 13.8718 16.2625 12.6406 16.8141 11.2813 16.8141 C 9.922 16.8141 8.6907 16.2625 7.7993 15.371 C 6.9079 14.4796 6.3563 13.2484 6.3563 11.8891 C 6.3563 10.5298 6.9079 9.2985 7.7993 8.4071 C 8.6907 7.5157 9.922 6.9641 11.2813 6.9641 Z " stroke-width="1.2312500476837158"/>
</svg>